<svg xmlns="http://www.w3.org/2000/svg" width="22" height="18" viewBox="0 0 22 18">
    <g fill="none" fill-rule="evenodd">
        <path d="M-1-3h24v24H-1z"/>
        <path fill="#6f3c2f" d="M1.333 13.157c0 .822.668 1.49 1.49 1.49.821 0 1.49-.668 1.49-1.49 0-.322-.105-.62-.28-.864a24.206 24.206 0 0 0-2.063-.355c-.384.27-.637.715-.637 1.22zm5.34.107a.374.374 0 0 0 .316.223c.49.034 1.66.111 2.256.111.765 0 1.147-1.113 1.304-1.513.156-.4.052-2.66.052-2.66H8.706l.703 3.638a.174.174 0 0 1-.17.21l-2.342-.185v-.435c0-.348.313-.313.313-.313h.8S6.967 8.712 6.967 8.242c0-.47.348-.556.539-.556h3.426v-1.46H8.209a.165.165 0 0 1-.164-.165v-.305h-.748L5.298 9.56a.918.918 0 0 0-.014.826l1.389 2.878zm6.24 2.108c0 .82.669 1.49 1.49 1.49.822 0 1.49-.67 1.49-1.49v-.019l-2.929-.358c-.032.12-.05.246-.05.377zM.018 11.474c.711-1.738 2.852-1.77 3.225-1.761a.11.11 0 0 0 .09-.045l1.235-1.904 1.288-1.488a.111.111 0 0 0-.09-.178h-.362a.111.111 0 0 1-.111-.112V4.103c0-.067.054-.116.12-.112.753.044 1.08.496 1.126.897a.108.108 0 0 0 .102.094c.282.02.568.26.66.344.022.02.048.03.076.03h3.114c.061 0 .111-.05.111-.112v-.977c0-.061.05-.111.112-.111h.124c.062 0 .112-.05.112-.112v-.733a.111.111 0 0 0-.112-.111h-.923a.112.112 0 0 1-.111-.112v-.49c0-.061.05-.111.111-.111l.183-.026a.111.111 0 0 0 .111-.104l.114-1.576.006-.031c.264-.773 1.316-.75 1.316-.75 1.16 0 1.693.742 1.693 1.808 0 .899-.69 1.287-.909 1.387a.11.11 0 0 0-.065.102v.232c0 .061.05.111.112.111h.025a.11.11 0 0 1 .11.093c.102.624.808 4.205.808 4.776 0 .514-.235 1.08-.864 1.198-.052.01-.162-.002-.162.109l.003.252h1.713a.48.48 0 0 1-.2-.457l.502-3.687a.483.483 0 0 1 .544-.413l5.699.777c.264.036.449.28.413.543l-.503 3.687a.483.483 0 0 1-.544.413l-2.41-.328v.64a.39.39 0 0 1-.39.39h-.754c1.445 1.178 1.985 2.942 2.157 3.698a.265.265 0 0 1-.29.32l-1.306-.159A2.63 2.63 0 0 1 14.403 18a2.631 2.631 0 0 1-2.577-3.144l-1.938-.237-3.41-.48a.34.34 0 0 1-.21-.161c-.105-.227-.533-.802-.862-1.296a2.631 2.631 0 0 1-2.583 3.104 2.631 2.631 0 0 1-2.629-2.629c0-.497.142-.96.383-1.358a9.112 9.112 0 0 0-.361-.016.223.223 0 0 1-.199-.309z"/>
    </g>
</svg>
 