<svg xmlns="http://www.w3.org/2000/svg" width="18" height="19" viewBox="0 0 18 19">
    <g fill="none" fill-rule="evenodd" opacity="0.7">
        <path d="M-3-3h24v24H-3z"/>
        <path fill="#000" fill-rule="nonzero" d="M14.233 16.658l2.949 1.588h-6.125l3.176-1.588zM13.613.874L9.42 18.246H0L4.114 2.932h7.405c.3.001.583-.136.768-.373L13.613.874zm.3 1.539V16.09l-3.755 1.877 3.755-15.554zm.651.204L18 17.947l-3.436-1.85V2.617zm-4.09 2.596h-5.19a.976.976 0 0 0-.95.744l-.64 2.607a.977.977 0 0 0 .95 1.21h5.19c.45.001.843-.306.95-.744l.64-2.606a.977.977 0 0 0-.95-1.21zm0 .652a.326.326 0 0 1 .317.403l-.64 2.607a.326.326 0 0 1-.317.248h-5.19a.326.326 0 0 1-.317-.403l.64-2.607a.326.326 0 0 1 .317-.248zM13.473 0l-1.697 2.156a.324.324 0 0 1-.256.125H2.548a.326.326 0 0 1-.256-.528L3.574.124A.324.324 0 0 1 3.83 0h9.642z" opacity='0.7'/>
    </g>
</svg>
